<?xml version="1.0" encoding="iso-8859-1"?>
<!-- Uploaded to: SVG Repo, www.svgrepo.com, Generator: SVG Repo Mixer Tools -->
<svg version="1.1" id="Layer_1" xmlns="http://www.w3.org/2000/svg" xmlns:xlink="http://www.w3.org/1999/xlink" 
	 viewBox="0 0 511.448 511.448" xml:space="preserve">
<g>
	<path style="fill:#FFFFFF;" d="M35.348,115.081v343.145c-10.881-3.502-18.779-13.732-18.779-25.76V140.841
		C16.57,128.812,24.468,118.583,35.348,115.081z"/>
	<path style="fill:#FFFFFF;" d="M494.878,140.841v291.625c0,12.03-7.898,22.258-18.779,25.76V115.081
		C486.98,118.583,494.878,128.812,494.878,140.841z"/>
	<rect x="264.009" y="202.149" style="fill:#FFFFFF;" width="18.779" height="133.661"/>
	<rect x="228.66" y="202.149" style="fill:#FFFFFF;" width="18.779" height="133.661"/>
	<path style="fill:#FFFFFF;" d="M397.67,113.778V459.53H113.778V113.778H397.67z M299.357,344.095V176.19
		c0-19.188-15.609-34.796-34.796-34.796h-17.674c-19.188,0-34.796,15.609-34.796,34.796v167.905c0,0.287,0.011,0.574,0.044,0.862
		c0,0.022,0.011,0.044,0.011,0.055c0.033,0.276,0.067,0.529,0.122,0.795c0.011,0.033,0.022,0.067,0.022,0.088
		c0.056,0.254,0.122,0.497,0.2,0.729c0.011,0.055,0.032,0.099,0.055,0.155c0.077,0.21,0.155,0.432,0.243,0.641
		c0.011,0.011,0.011,0.023,0.023,0.044l35.348,79.534c1.324,2.983,4.297,4.916,7.567,4.916s6.241-1.933,7.567-4.916l35.348-79.534
		c0.012-0.022,0.012-0.033,0.022-0.044c0.088-0.209,0.165-0.431,0.243-0.641c0.023-0.055,0.044-0.099,0.055-0.155
		c0.077-0.232,0.144-0.475,0.2-0.729c0-0.022,0.011-0.055,0.022-0.088c0.055-0.265,0.088-0.519,0.122-0.795
		c0-0.011,0.011-0.033,0.011-0.055C299.346,344.669,299.357,344.382,299.357,344.095z"/>
</g>
<g>
	<polygon style="fill:#C2E95D;" points="278.325,352.38 269.974,371.159 241.474,371.159 233.123,352.38 	"/>
	<path style="fill:#C2E95D;" d="M459.53,105.493v362.321c0,0.309-0.243,0.552-0.552,0.552h-44.186c-0.309,0-0.552-0.243-0.552-0.552
		V105.515c0-0.011,0-0.011,0-0.022c0-0.309,0.254-0.552,0.552-0.552h44.186C459.287,104.941,459.53,105.184,459.53,105.493z"/>
	<path style="fill:#C2E95D;" d="M97.208,467.792c0,0.011,0,0.011,0,0.022c0,0.309-0.254,0.552-0.552,0.552H52.47
		c-0.309,0-0.552-0.243-0.552-0.552V105.493c0-0.309,0.243-0.552,0.552-0.552h44.186c0.309,0,0.552,0.243,0.552,0.552V467.792z"/>
	<path style="fill:#C2E95D;" d="M282.787,176.19v9.389H228.66v-9.389c0-10.052,8.174-18.227,18.227-18.227h17.674
		C274.613,157.963,282.787,166.138,282.787,176.19z"/>
</g>
<g>
	<path style="fill:#535757;" d="M511.448,140.841v291.625c0,21.894-16.205,40.065-37.248,43.158
		c-2.85,5.523-8.594,9.312-15.222,9.312h-44.186c-6.44,0-12.052-3.579-14.968-8.837h-288.2c-2.916,5.258-8.528,8.837-14.968,8.837
		H52.47c-6.628,0-12.372-3.789-15.222-9.312C16.205,472.53,0,454.36,0,432.466V140.841c0-21.894,16.205-40.065,37.248-43.158
		c2.85-5.523,8.594-9.312,15.222-9.312h44.186c6.44,0,12.052,3.579,14.968,8.837h65.118V70.145
		c0-24.059,19.574-43.633,43.633-43.633h70.697c24.059,0,43.633,19.574,43.633,43.633v27.064h65.118
		c2.916-5.258,8.528-8.837,14.968-8.837h44.186c6.628,0,12.372,3.789,15.222,9.312C495.243,100.776,511.448,118.947,511.448,140.841
		z M494.878,432.466V140.841c0-12.03-7.898-22.258-18.779-25.76v343.145C486.98,454.724,494.878,444.496,494.878,432.466z
		 M459.53,467.814V105.493c0-0.309-0.243-0.552-0.552-0.552h-44.186c-0.298,0-0.552,0.243-0.552,0.552c0,0.011,0,0.011,0,0.022
		v362.299c0,0.309,0.243,0.552,0.552,0.552h44.186C459.287,468.367,459.53,468.124,459.53,467.814z M397.67,459.53V113.778H113.778
		V459.53H397.67z M318.136,97.208V70.145c0-14.924-12.14-27.064-27.064-27.064h-70.697c-14.924,0-27.064,12.14-27.064,27.064v27.064
		H318.136z M97.208,467.814c0-0.011,0-0.011,0-0.022V105.493c0-0.309-0.243-0.552-0.552-0.552H52.47
		c-0.309,0-0.552,0.243-0.552,0.552v362.321c0,0.309,0.243,0.552,0.552,0.552h44.186C96.954,468.367,97.208,468.124,97.208,467.814z
		 M35.348,458.226V115.081c-10.881,3.502-18.779,13.732-18.779,25.76v291.625C16.57,444.496,24.468,454.724,35.348,458.226z"/>
	<path style="fill:#535757;" d="M299.357,176.19v167.905c0,0.287-0.011,0.574-0.044,0.862c0,0.022-0.011,0.044-0.011,0.055
		c-0.033,0.276-0.067,0.529-0.121,0.795c-0.011,0.033-0.022,0.067-0.022,0.088c-0.056,0.254-0.121,0.497-0.2,0.729
		c-0.011,0.055-0.032,0.099-0.055,0.155c-0.077,0.21-0.155,0.432-0.243,0.641c-0.011,0.011-0.011,0.023-0.022,0.044l-35.348,79.534
		c-1.324,2.983-4.297,4.916-7.567,4.916c-3.27,0-6.241-1.933-7.567-4.916l-35.348-79.534c-0.012-0.022-0.012-0.033-0.023-0.044
		c-0.088-0.209-0.165-0.431-0.243-0.641c-0.023-0.055-0.044-0.099-0.055-0.155c-0.077-0.232-0.144-0.475-0.2-0.729
		c0-0.022-0.011-0.055-0.022-0.088c-0.055-0.265-0.088-0.519-0.122-0.795c0-0.011-0.011-0.033-0.011-0.055
		c-0.033-0.288-0.044-0.576-0.044-0.862V176.19c0-19.188,15.609-34.796,34.796-34.796h17.674
		C283.749,141.394,299.357,157.002,299.357,176.19z M282.787,335.81V202.149h-18.779V335.81H282.787z M282.787,185.579v-9.389
		c0-10.052-8.174-18.227-18.227-18.227h-17.674c-10.052,0-18.227,8.174-18.227,18.227v9.389H282.787z M269.974,371.159l8.351-18.779
		h-45.202l8.351,18.779H269.974z M255.724,403.226l6.893-15.498h-13.786L255.724,403.226z M247.439,335.81V202.149H228.66V335.81
		H247.439z"/>
</g>
</svg>